<svg xmlns="http://www.w3.org/2000/svg" fill-rule="evenodd" stroke-linejoin="round" stroke-miterlimit="2" clip-rule="evenodd" viewBox="0 0 128 128"><rect width="128" height="128" fill="none"/><path d="M63.3,25.621C42.641,25.621 25.868,42.394 25.868,63.053C25.868,83.712 42.641,100.484 63.3,100.484C83.959,100.484 100.731,83.712 100.731,63.053C100.731,42.394 83.959,25.621 63.3,25.621ZM63.3,29.73C81.691,29.73 96.623,44.661 96.623,63.053C96.623,81.444 81.691,96.375 63.3,96.375C44.909,96.375 29.977,81.444 29.977,63.053C29.977,44.661 44.909,29.73 63.3,29.73Z" transform="rotate(-35 18.355 96.098) scale(1.21687)"/><path d="M30.566,63.053C30.566,44.986 45.233,30.319 63.3,30.319C64.758,30.319 65.943,29.134 65.943,27.676C65.943,26.217 64.758,25.033 63.3,25.033C42.316,25.033 25.28,42.069 25.28,63.053C25.28,64.511 26.464,65.696 27.923,65.696C29.381,65.696 30.566,64.511 30.566,63.053Z" transform="rotate(-35 36.87 60.361) scale(.94595)"/><path d="M105.599,46.505L105.599,58.481C105.599,60.343 107.111,61.855 108.973,61.855C110.835,61.855 112.347,60.343 112.347,58.481L112.347,46.505C112.347,44.643 110.835,43.131 108.973,43.131C107.111,43.131 105.599,44.643 105.599,46.505Z" transform="rotate(-35 155.683 59.289) scale(.74102)"/><path d="M123.219,69.344C123.219,61.405 118.53,54.215 111.265,51.015C111.264,51.014 111.264,51.014 111.263,51.014C110.014,50.463 108.591,50.463 107.342,51.014C107.341,51.014 107.34,51.014 107.34,51.015C100.075,54.215 95.386,61.405 95.386,69.344C95.386,78.062 95.386,90.166 95.386,98.418C95.386,101.76 96.713,104.965 99.076,107.328C101.439,109.691 104.644,111.018 107.985,111.018C108.859,111.018 109.746,111.018 110.62,111.018C113.961,111.018 117.166,109.691 119.529,107.328C121.892,104.965 123.219,101.76 123.219,98.418L123.219,69.344ZM109.302,57.554C104.919,59.823 102.133,64.361 102.133,69.344C102.133,78.062 102.133,90.166 102.133,98.418C102.133,99.971 102.75,101.459 103.847,102.557C104.945,103.654 106.433,104.271 107.985,104.271C108.859,104.271 109.746,104.271 110.62,104.271C112.172,104.271 113.66,103.654 114.758,102.557C115.855,101.459 116.472,99.971 116.472,98.418L116.472,69.344C116.472,64.361 113.686,59.823 109.302,57.554Z" transform="rotate(-35 161.68 57.824) scale(.74102)"/></svg>